<svg width="24" height="24" viewBox="0 0 24 24" fill="none" xmlns="http://www.w3.org/2000/svg">
<path d="M15.765 11.2584C14.6087 11.2584 13.678 12.2851 13.678 13.5685C13.678 14.8234 14.6087 15.8501 15.765 15.8501C16.9495 15.8501 17.8801 14.8234 17.8801 13.5685C17.8801 12.2851 16.9495 11.2584 15.765 11.2584ZM8.29142 11.2584C7.13514 11.2584 6.17626 12.2851 6.17626 13.5685C6.17626 14.8234 7.13514 15.8501 8.29142 15.8501C9.44771 15.8501 10.3784 14.8234 10.3784 13.5685C10.3784 12.2851 9.44771 11.2584 8.29142 11.2584ZM17.7391 20.727C17.7391 20.727 17.0059 19.8144 16.3854 19.0443C19.0928 18.2743 20.1081 16.5631 20.1081 16.5631C19.262 17.1335 18.4442 17.5328 17.7391 17.7895C16.6957 18.2173 15.7086 18.531 14.7497 18.7021C12.7756 19.0729 10.9706 18.9873 9.41951 18.7021C8.23502 18.4739 7.21974 18.1317 6.40188 17.7895C5.92244 17.6183 5.41481 17.3902 4.87897 17.0765C4.82256 17.0479 4.76616 17.0194 4.70975 16.9624C4.65335 16.9624 4.62515 16.9339 4.59694 16.9339C4.23032 16.7057 4.0329 16.5631 4.0329 16.5631C4.0329 16.5631 5.01998 18.2173 7.64277 19.0158C7.02233 19.8144 6.26087 20.727 6.26087 20.727C1.72033 20.5844 0 17.5613 0 17.5613C0 10.8591 2.96122 5.44039 2.96122 5.44039C5.92244 3.18732 8.71445 3.27288 8.71445 3.27288L8.94007 3.50104C5.21739 4.58479 3.52526 6.23894 3.52526 6.23894C3.52526 6.23894 3.9765 5.98226 4.76616 5.64003C6.96592 4.67035 8.68625 4.41367 9.41951 4.32812C9.53232 4.32812 9.64512 4.2996 9.75793 4.27108C11.027 4.12848 12.4371 4.07144 13.9318 4.24256C15.8778 4.47071 17.9647 5.06963 20.1081 6.23894C20.1081 6.23894 18.5006 4.67035 15.0035 3.5866L15.2855 3.27288C15.2855 3.27288 18.0776 3.18732 21.0388 5.44039C21.0388 5.44039 24 10.8591 24 17.5613C24 17.5613 22.2797 20.5844 17.7391 20.727Z" fill="white" fill-opacity="0.64"/>
</svg>
