<svg width="24" height="24" viewBox="0 0 24 24" fill="none" xmlns="http://www.w3.org/2000/svg">
<path d="M24 0H0V24H24V0Z" fill="white" fill-opacity="0.64"/>
<path d="M5.72744 8.0267C5.74747 7.82878 5.67199 7.63316 5.52421 7.49995L4.01878 5.68643V5.41553H8.69312L12.3061 13.3393L15.4826 5.41553H19.9386V5.68643L18.6515 6.92052C18.5405 7.00511 18.4855 7.14413 18.5085 7.28172V16.3493C18.4855 16.4869 18.5405 16.6259 18.6515 16.7105L19.9085 17.9446V18.2155H13.5857V17.9446L14.8879 16.6804C15.0159 16.5525 15.0159 16.5149 15.0159 16.3192V8.9899L11.3954 18.1854H10.9061L6.69091 8.9899V15.1529C6.65576 15.412 6.74182 15.6728 6.92425 15.8602L8.61785 17.9145V18.1854H3.81555V17.9145L5.50915 15.8602C5.69025 15.6725 5.77129 15.4099 5.72744 15.1529V8.0267Z" fill="#1B1B1B"/>
</svg>
