<svg width="20" height="20" viewBox="0 0 20 20" fill="none" xmlns="http://www.w3.org/2000/svg">
<path d="M7.5 6.25006H4.2375C5.04584 5.00777 6.23401 4.05996 7.62489 3.54793C9.01576 3.03589 10.5349 2.98705 11.9558 3.40868C13.3767 3.83031 14.6233 4.69984 15.5097 5.88764C16.3962 7.07545 16.8751 8.51793 16.875 10.0001H18.125C18.1267 8.3285 17.6128 6.69707 16.6534 5.32826C15.694 3.95944 14.3357 2.91985 12.7639 2.35123C11.192 1.78262 9.48296 1.71266 7.86986 2.1509C6.25676 2.58914 4.81808 3.51424 3.75 4.80006V2.50007H2.5V7.50006H7.5V6.25006Z" fill="white" fill-opacity="0.64"/>
<path d="M12.5 13.75H15.7625C14.9542 14.9923 13.766 15.9401 12.3751 16.4521C10.9842 16.9642 9.46513 17.013 8.04423 16.5914C6.62334 16.1698 5.37674 15.3002 4.49027 14.1124C3.60379 12.9246 3.12491 11.4821 3.125 10H1.875C1.87328 11.6716 2.38717 13.303 3.34659 14.6718C4.306 16.0406 5.66426 17.0802 7.23614 17.6488C8.80803 18.2174 10.517 18.2874 12.1301 17.8492C13.7432 17.4109 15.1819 16.4858 16.25 15.2V17.5H17.5V12.5H12.5V13.75Z" fill="white" fill-opacity="0.64"/>
</svg>
