<svg width="20" height="20" viewBox="0 0 20 20" fill="none" xmlns="http://www.w3.org/2000/svg">
<path d="M18.1249 17.2412L13.4048 12.5211C14.539 11.1595 15.1046 9.413 14.9839 7.64497C14.8632 5.87695 14.0655 4.22351 12.7568 3.02863C11.4481 1.83375 9.72909 1.18942 7.95741 1.22968C6.18572 1.26994 4.49776 1.99169 3.24467 3.24479C1.99157 4.49788 1.26982 6.18584 1.22956 7.95753C1.1893 9.72922 1.83363 11.4482 3.02851 12.7569C4.22339 14.0657 5.87682 14.8633 7.64485 14.984C9.41288 15.1047 11.1594 14.5392 12.521 13.405L17.2411 18.125L18.1249 17.2412ZM2.4999 8.12503C2.4999 7.01251 2.8298 5.92497 3.44789 4.99994C4.06597 4.07492 4.94447 3.35395 5.97231 2.9282C7.00014 2.50246 8.13114 2.39107 9.22229 2.60811C10.3134 2.82515 11.3157 3.36088 12.1024 4.14755C12.889 4.93422 13.4248 5.9365 13.6418 7.02764C13.8589 8.11879 13.7475 9.24979 13.3217 10.2776C12.896 11.3055 12.175 12.184 11.25 12.802C10.325 13.4201 9.23742 13.75 8.1249 13.75C6.63357 13.7484 5.20379 13.1552 4.14925 12.1007C3.09472 11.0461 2.50156 9.61636 2.4999 8.12503Z" fill="white" fill-opacity="0.64"/>
</svg>
